<svg width="660" height="720" viewBox="0 0 660 720" fill="none" xmlns="http://www.w3.org/2000/svg">
<path d="M578.205 709.171C577.858 710.761 576.088 717.359 575.537 719.105H542.993V717.127C548.863 716.63 549.272 716.249 549.272 711.282V688.178C549.272 683.029 548.525 682.689 544.007 682.308V680.297H564.401C570.876 680.297 573.207 680.231 574.06 680.173C574.123 681.39 574.425 686.133 574.683 689.643L572.379 689.941C571.908 688.086 571.076 686.327 569.925 684.751C568.813 683.285 567.754 682.913 564.286 682.913H559.456C557.179 682.913 556.966 683.053 556.966 684.974V697.681H563.53C567.541 697.681 568.075 696.787 568.964 692.615H571.285V705.562H568.964C568.012 701.191 567.497 700.521 563.467 700.521H556.939V711.357C556.939 715.496 557.517 716.423 561.217 716.489H566.251C569.951 716.489 570.805 716.026 572.21 714.436C573.728 712.666 574.99 710.718 575.964 708.642L578.205 709.171Z" fill="#323232" fill-opacity="0.1"/>
<path d="M541.117 719.47C540.575 719.47 539.827 719.47 539.045 719.387C532.116 719.056 529.706 717.616 527.482 714.693C524.992 711.498 522.973 707.822 520.847 704.428C519.771 702.714 518.899 702.358 516.4 702.358L514.79 702.317V711.249C514.79 716.167 515.448 716.539 520.367 717.044V719.064H501.645V717.044C506.67 716.548 507.195 716.159 507.195 711.249V688.069C507.195 683.235 506.536 682.746 501.645 682.324V680.312H519.433C524.77 680.312 527.989 680.884 530.551 682.49C531.94 683.351 533.067 684.531 533.823 685.916C534.579 687.301 534.937 688.844 534.864 690.396C534.864 695.644 531.173 698.592 526.771 700.264C527.802 702.077 530.382 705.993 532.303 708.708C533.778 710.882 535.429 712.949 537.239 714.892C538.326 716.172 539.816 717.104 541.5 717.558L541.117 719.47ZM516.987 700.024C519.94 700.024 522.057 699.585 523.533 698.409C525.783 696.754 526.726 694.411 526.726 691.306C526.726 684.973 522.59 682.68 518.535 682.68C516.756 682.68 515.866 682.92 515.431 683.276C514.995 683.632 514.79 684.336 514.79 685.652V700.024H516.987Z" fill="#323232" fill-opacity="0.1"/>
<path d="M498.345 682.383C494.271 682.698 493.008 683.774 492.83 686.125C492.688 687.781 492.555 689.966 492.555 694.594V701.92C492.555 707.384 491.665 712.384 488.036 715.993C485.066 718.874 480.583 720 476.082 720C472.036 720 467.9 719.172 464.956 717.028C461.194 714.362 459.379 710.563 459.379 703.783V688.6C459.379 683.162 458.828 682.764 453.865 682.342V680.33H472.623V682.383C467.713 682.764 467.153 683.211 467.153 688.642V704.164C467.153 711.548 470.995 716.084 478.137 716.084C486.275 716.084 489.45 710.844 489.45 701.564V694.553C489.45 689.958 489.255 687.773 489.13 686.042C488.89 683.327 487.209 682.582 482.638 682.342V680.33H498.345V682.383Z" fill="#323232" fill-opacity="0.1"/>
<path d="M446.741 690.306C446.216 688.355 445.373 686.49 444.241 684.776C443.13 683.402 442.569 682.946 438.905 682.946H433.995V711.358C433.995 716.242 434.591 716.697 440.426 717.095V719.115H420.067V717.095C425.688 716.697 426.239 716.267 426.239 711.358V682.946H421.659C418.101 682.946 417.069 683.418 415.904 684.975C414.849 686.662 414.027 688.468 413.458 690.347H411.199C411.626 686.208 412.089 681.903 412.204 678.882H413.983C414.944 680.272 415.691 680.33 417.541 680.33H443.094C443.772 680.402 444.457 680.306 445.082 680.052C445.707 679.797 446.248 679.394 446.652 678.882H448.43C448.475 681.489 448.733 686.398 449.053 690.124L446.741 690.306Z" fill="#323232" fill-opacity="0.1"/>
<path d="M406.182 709.072C405.203 712.266 404.015 715.401 402.624 718.459C398.77 719.346 394.826 719.851 390.857 719.966C374.305 719.966 366.95 709.95 366.95 700.099C366.95 687.823 377 679.462 392.014 679.462C397.564 679.462 402.34 680.646 404.119 680.869C404.412 683.626 404.866 687.748 405.337 690.496L402.971 690.91C401.655 686.49 399.867 684.205 396.514 682.955C394.601 682.303 392.575 681.983 390.537 682.011C380.807 682.011 375.817 689.246 375.817 698.774C375.817 709.892 381.972 717.284 391.302 717.284C397.092 717.284 400.543 714.593 403.932 708.244L406.182 709.072Z" fill="#323232" fill-opacity="0.1"/>
<path d="M347.312 719.072V717.052C351.394 716.539 351.572 715.901 350.674 713.443C349.971 711.473 348.895 708.683 347.765 705.819H334.797C333.988 707.954 333.063 710.247 332.334 712.3C330.964 716.1 332.28 716.572 337.403 717.052V719.072H321.945V717.052C325.983 716.58 327.006 716.083 329.212 710.951L342.553 679.966L345.221 679.494C349.295 689.8 353.671 700.645 357.789 710.719C360.048 716.141 360.626 716.58 364.904 717.052V719.072H347.312ZM341.415 689.436C339.485 694.014 337.555 698.542 335.847 702.987H346.653L341.415 689.436Z" fill="#323232" fill-opacity="0.1"/>
<path d="M322.017 690.016C321.496 688.174 320.632 686.431 319.464 684.867C318.166 683.31 317.285 682.987 314.03 682.987H308.507C306.443 682.987 306.212 683.128 306.212 685.049V698.294H313.443C317.516 698.294 317.961 697.466 318.922 693.327H321.136V706.291H318.86C318.104 702.193 317.33 701.2 313.443 701.2H306.212V710.977C306.212 716.358 306.683 716.714 312.438 717.111V719.131H292.871V717.111C297.842 716.714 298.421 716.341 298.421 710.977V688.459C298.421 683.194 297.825 682.805 292.871 682.4V680.388H314.128C319.722 680.388 322.568 680.322 323.618 680.264C323.68 681.679 323.983 686.464 324.303 689.759L322.017 690.016Z" fill="#323232" fill-opacity="0.1"/>
<path d="M289.65 681.95C285.568 682.264 284.314 683.341 284.136 685.692C283.985 687.347 283.86 689.533 283.86 694.16V701.487C283.86 706.95 282.971 711.95 279.333 715.56C276.362 718.441 271.888 719.566 267.388 719.566C263.341 719.566 259.196 718.739 256.261 716.595C252.499 713.929 250.685 710.129 250.685 703.349V688.167C250.685 682.728 250.124 682.331 245.17 681.908V679.897H263.928V681.95C259.018 682.331 258.458 682.778 258.458 688.208V703.73C258.458 711.114 262.3 715.651 269.442 715.651C277.581 715.651 280.747 710.411 280.747 701.131V694.119C280.747 689.524 280.56 687.339 280.427 685.609C280.196 682.894 278.515 682.148 273.943 681.908V679.897H289.65V681.95Z" fill="#323232" fill-opacity="0.1"/>
<path d="M241.008 682.383C237.032 682.839 235.778 683.559 235.582 686.257C235.431 688.435 235.262 690.628 235.262 695.943V719.726H232.078L205.129 689.445V703.418C205.129 708.667 205.28 711.117 205.449 712.839C205.662 715.612 207.094 716.812 211.79 717.094V719.114H196.021V717.094C199.783 716.796 201.357 715.902 201.704 713.062C202.009 709.847 202.127 706.62 202.06 703.393V688.849C202.06 686.986 201.936 685.802 200.735 684.337C199.534 682.872 198.067 682.607 195.247 682.342V680.33H206.729L232.096 707.988V695.902C232.096 690.587 232.007 688.41 231.811 686.357C231.624 683.749 230.441 682.64 225.194 682.342V680.33H241.008V682.383Z" fill="#323232" fill-opacity="0.1"/>
<path d="M176.463 719.072V717.052C180.546 716.539 180.723 715.901 179.825 713.443C179.122 711.473 178.046 708.683 176.908 705.819H163.949C163.14 707.954 162.17 710.247 161.485 712.3C160.116 716.1 161.432 716.572 166.555 717.052V719.072H151.097V717.052C155.135 716.58 156.158 716.083 158.354 710.951L171.696 679.966L174.409 679.494C178.482 689.8 182.858 700.645 186.976 710.719C189.235 716.141 189.813 716.58 194.091 717.052V719.072H176.463ZM170.557 689.436C168.636 694.014 166.706 698.542 164.998 702.987H175.805L170.557 689.436Z" fill="#323232" fill-opacity="0.1"/>
<path d="M130.524 718.639V716.619C135.523 716.147 135.798 715.791 135.78 709.996V686.37C130.906 696.85 124.681 710.22 120.892 718.639H118.935C115.466 710.427 109.978 697.48 105.282 686.925C104.393 706.395 104.339 710.443 104.339 712.231C104.402 715.493 105.789 716.205 110.441 716.619V718.639H94.8048V716.619C98.4781 716.304 100.141 715.625 100.604 712.173C100.906 710.096 101.102 707.132 102.641 686.735C102.854 683.787 102.338 682.388 96.7882 681.908V679.897H109.676L122.662 707.554L136.056 679.897H148.757V681.95C143.501 682.471 142.878 682.968 143.011 687.529L143.43 710.071C143.563 715.791 143.794 716.048 149.14 716.693V718.713L130.524 718.639Z" fill="#323232" fill-opacity="0.1"/>
<path d="M366.466 660.436V658.912C370.236 658.557 370.444 658.257 370.431 653.917V636.096C366.781 644.001 362.071 654.054 359.213 660.411H357.744C355.127 654.217 350.981 644.451 347.439 636.489C346.768 651.176 346.728 654.229 346.728 655.578C346.775 658.038 347.828 658.575 351.33 658.887V660.411H339.522V658.887C342.293 658.65 343.548 658.138 343.903 655.534C344.125 653.967 344.272 651.731 345.433 636.345C345.594 634.122 345.205 633.067 341.018 632.705V631.188H350.74L360.542 652.05L370.639 631.188H380.219V632.705C376.254 633.098 375.784 633.473 375.885 636.914L376.2 653.917C376.301 658.232 376.475 658.425 380.508 658.912V660.436H366.466Z" fill="#323232" fill-opacity="0.1"/>
<path d="M321.951 660.436V658.913C325.722 658.569 326.138 658.332 326.138 654.541V637.151C326.138 633.348 325.688 633.048 321.951 632.73V631.212H336.181V632.73C332.424 633.079 331.975 633.354 331.975 637.151V654.535C331.975 658.282 332.391 658.538 336.181 658.906V660.43L321.951 660.436Z" fill="#323232" fill-opacity="0.1"/>
<path d="M309.647 644.431C314.565 645.237 318.208 647.422 318.208 651.731C318.166 653.159 317.712 654.551 316.893 655.76C316.073 656.968 314.919 657.949 313.552 658.6C311.07 659.848 308.185 660.442 304.662 660.442H291.707V658.918C295.565 658.562 295.9 658.294 295.9 654.547V637.119C295.9 633.373 295.344 632.985 291.741 632.748V631.231H305.716C309.372 631.231 311.673 631.724 313.471 632.804C314.376 633.335 315.119 634.073 315.629 634.948C316.138 635.823 316.398 636.805 316.383 637.8C316.356 641.696 312.633 643.832 309.647 644.431ZM303.71 643.863C308.554 643.863 310.419 641.99 310.419 638.518C310.419 634.877 307.896 633.06 304.548 633.06C303.718 632.991 302.883 633.127 302.126 633.454C301.643 633.753 301.623 634.191 301.623 635.327V643.882L303.71 643.863ZM301.623 654.478C301.623 657.713 302.965 658.643 305.843 658.612C308.889 658.581 311.881 656.52 311.881 652.149C311.881 647.778 309.124 645.674 303.542 645.674H301.596L301.623 654.478Z" fill="#323232" fill-opacity="0.1"/>
<path d="M330.254 623.07V408.796L0 199.91V410.982L330.254 623.07Z" fill="#E8CFCF"/>
<path d="M330.254 623.069L660 411.283L659.467 200.417L329.733 408.445L330.254 623.069Z" fill="#00FF00" fill-opacity="0.1"/>
<path d="M0 200.508L329.721 408.685L659.467 200.508L325.156 0L0 200.508Z" fill="#CFCFE8"/>
</svg>
