<svg xmlns="http://www.w3.org/2000/svg" width="512" height="512" fill="none" xmlns:v="https://vecta.io/nano"><path fill="#f6f6f6" d="M187 117h137v277H187z"/><path d="M256 0C114.613 0 0 114.617 0 256c0 141.391 114.613 256 256 256s256-114.609 256-256C512 114.617 397.387 0 256 0zm0 128c17.674 0 32 14.328 32 32 0 17.68-14.326 32-32 32s-32-14.32-32-32c0-17.672 14.326-32 32-32zm48 256h-96a16 16 0 0 1-16-16c0-8.836 7.164-16 16-16h16v-96h-16a16 16 0 0 1-16-16c0-8.836 7.164-16 16-16h64c8.836 0 16 7.164 16 16v112h16c8.836 0 16 7.164 16 16a16 16 0 0 1-16 16z" fill="#0f62ef"/></svg>