<svg xmlns="http://www.w3.org/2000/svg" width="48" height="48" fill="none" xmlns:v="https://vecta.io/nano"><ellipse cx="23.929" cy="34.257" rx="22.454" ry="2.772" fill="#eeeded" fill-opacity=".5"/><g stroke="#28282d"><g stroke-width=".889"><path d="M2.4 33.771l6.058-7.91h16.47l4.66-5.296h7.414"/><path d="M36.719 20.753l4.784-4.848"/></g><path d="M40.054 15.562l1.067.577.623 1.057 1.423-3.557-3.112 1.923z" fill="#28282d" stroke-width=".106"/><g fill="#fff"><circle cx="13.162" cy="26.089" r="3.049" stroke-width="1.016"/><circle cx="37.83" cy="14.528" r="1.524" stroke-width=".508"/></g></g><circle cx="32.05" cy="23.866" r="1.524" fill="#fff" stroke="#000" stroke-width=".508"/><circle cx="21.38" cy="14.528" r="3.049" fill="#fff" stroke="#28282d" stroke-width="1.016"/><path d="M12.957 27.162c.209 0 .355-.032.439-.098s.126-.153.126-.256a.33.33 0 0 0-.057-.195.49.49 0 0 0-.146-.142 1.1 1.1 0 0 0-.211-.11l-.244-.094-.244-.098a1.04 1.04 0 0 1-.211-.134.7.7 0 0 1-.154-.191c-.038-.076-.057-.168-.057-.276 0-.192.057-.35.171-.472s.285-.203.504-.236v-.467h.337v.455c.119.005.23.02.333.045l.244.069-.077.317a2.27 2.27 0 0 0-.244-.073 1.39 1.39 0 0 0-.366-.041c-.163 0-.289.031-.378.093a.3.3 0 0 0-.13.264c0 .062.012.115.037.159s.065.083.114.118.106.062.171.089l.224.085.301.126a1 1 0 0 1 .248.159.69.69 0 0 1 .175.215.65.65 0 0 1 .065.305.64.64 0 0 1-.175.468c-.117.116-.297.19-.541.22v.524h-.337v-.512a1.85 1.85 0 0 1-.463-.061 1.61 1.61 0 0 1-.268-.106l.102-.305c.081.038.179.073.293.106s.255.049.423.049zm24.901-12.544c.068 0 .115-.011.143-.032s.041-.05.041-.083c0-.025-.006-.046-.018-.063s-.027-.033-.047-.046a.36.36 0 0 0-.069-.036l-.079-.03-.079-.032c-.026-.012-.048-.027-.069-.044s-.037-.038-.05-.062a.2.2 0 0 1-.019-.09c0-.062.019-.114.056-.153s.093-.066.164-.077v-.152h.11v.148a.58.58 0 0 1 .108.014l.079.022-.025.103a.77.77 0 0 0-.079-.024c-.032-.009-.071-.013-.119-.013s-.094.01-.123.03-.042.049-.042.086c0 .02.004.037.012.052s.021.027.037.038a.32.32 0 0 0 .056.029l.073.028.098.041c.031.014.058.031.081.052s.043.043.057.07.021.06.021.099c0 .063-.019.113-.057.152s-.096.062-.176.071v.17h-.11v-.166a.61.61 0 0 1-.151-.02.53.53 0 0 1-.087-.034l.033-.099c.026.012.058.024.095.034a.51.51 0 0 0 .137.016z" fill="#f41212"/><path d="M32.049 24.371c.087 0 .148-.014.183-.041s.053-.064.053-.107c0-.032-.008-.059-.024-.081s-.035-.042-.061-.059a.46.46 0 0 0-.088-.046l-.102-.039-.102-.041a.43.43 0 0 1-.088-.056c-.026-.023-.047-.049-.064-.08s-.024-.07-.024-.115c0-.08.024-.146.071-.196s.119-.085.21-.098v-.195h.141v.19a.75.75 0 0 1 .139.019l.102.029-.032.132c-.027-.01-.061-.02-.102-.03a.58.58 0 0 0-.153-.017c-.068 0-.12.013-.157.039s-.054.063-.054.11c0 .026.005.048.015.066s.027.034.048.049.044.026.071.037l.093.036.125.052c.04.018.074.04.103.066a.28.28 0 0 1 .073.09c.018.035.027.077.027.127 0 .08-.024.145-.073.195s-.124.079-.225.091v.219h-.141v-.213c-.079-.002-.143-.011-.193-.025s-.087-.03-.112-.044l.042-.127c.034.016.075.03.122.044s.106.02.176.02z" fill="#0f0"/><path d="M21.174 15.602c.209 0 .355-.032.439-.098s.126-.153.126-.256a.33.33 0 0 0-.057-.195.49.49 0 0 0-.146-.142c-.06-.041-.13-.077-.211-.11l-.244-.094-.244-.098a1.04 1.04 0 0 1-.211-.134c-.062-.054-.114-.118-.154-.191s-.057-.168-.057-.276c0-.192.057-.35.171-.471s.285-.203.504-.236v-.468h.337v.455a1.8 1.8 0 0 1 .333.045l.244.069-.077.317a2.29 2.29 0 0 0-.244-.073 1.39 1.39 0 0 0-.366-.041c-.163 0-.289.031-.378.093s-.13.15-.13.264c0 .062.012.115.037.159s.065.083.114.118.106.062.171.09l.224.085.301.126a1 1 0 0 1 .248.159.67.67 0 0 1 .175.215c.043.084.065.186.065.305a.64.64 0 0 1-.175.467c-.117.117-.297.19-.541.22v.524h-.337v-.512a1.86 1.86 0 0 1-.463-.061c-.119-.038-.209-.073-.268-.106l.102-.305a2.01 2.01 0 0 0 .293.106c.114.033.255.049.423.049z" fill="#00f"/><path d="M29.911 30.56h1.733v2.426h-1.733zm3.118-2.079h1.733v4.505h-1.733zm3.119-2.426h1.733v6.93h-1.733zm3.118-2.252h1.733v9.182h-1.733zm-9.355 9.425h11.088v1.109H29.911z" fill="#28282d"/><path d="M31.02 33.505h8.871v.554h-8.87v-.554z" fill="#eeeded"/><path d="M23.641 27.433v-.041l-.003-.12-.056-1.263-.135-.997.451-.619a.48.48 0 0 1 .034.062c.004.011.007.022.009.034l.018.129.024.196a11.09 11.09 0 0 1 .066 1.409l-.033.673c-.011.133-.037.265-.078.393a.6.6 0 0 1-.025.063.14.14 0 0 0-.01.045l-.003.082c-.006.073-.018.145-.034.216a2.84 2.84 0 0 1-.094.317 1.53 1.53 0 0 1-.128.286.75.75 0 0 1-.09.12.64.64 0 0 1-.06.056c-.01.008-.022.023-.036.014a.51.51 0 0 1-.049-.098c.005-.011.006-.02.011-.032.043-.102.056-.216.075-.325l.032-.174c.007-.031.007-.063 0-.094-.004-.016-.012-.032-.022-.045s-.01-.02-.01-.03.004-.022.01-.03l.013-.018.065-.091.032-.045.003-.005a.13.13 0 0 0 .025-.066v-.001zm-4.418-3.895l.21.343a5.28 5.28 0 0 0 .551.669l.083.085c.019.022.045.037.073.043.049.008.069-.084.106-.115.03-.025.094.006.116-.027a2.36 2.36 0 0 1 .23.228l.049.058-.167.299c-.054.095-.116.191-.213.248-.042.027-.09.042-.14.043a.26.26 0 0 1-.141-.038c-.076-.046-.128-.121-.172-.195-.057-.096-.105-.199-.156-.298l-.629-1.227-.182-.088c-.07-.036-.145-.073-.203-.127a.27.27 0 0 1-.067-.094c-.009-.018-.013-.038-.01-.058.005-.009.011-.016.019-.022s.017-.01.027-.011a.28.28 0 0 1 .11 0 .55.55 0 0 1 .126.029c.057.022.113.047.168.075l.03.015c.007-.013.003-.028-.003-.041a.34.34 0 0 1-.028-.111c-.002-.025-.005-.069.015-.089.029-.028.072.024.085.045a.48.48 0 0 1 .038.097l.034.108.045.159z" fill="#010002"/><path d="M21.676 34.395v-.139c.01-.018.015-.021.021-.021h.211c.018.009.02.014.02.02v.507c0 .013-.005.026-.015.036s-.022.015-.036.015h-.693c-.021-.011-.023-.017-.023-.023 0-.077.03-.15.084-.204s.127-.085.204-.085h.122a.11.11 0 0 0 .04-.008c.013-.005.024-.013.034-.023s.017-.021.023-.034.008-.026.008-.04zm1.245 0v-.139c-.01-.018-.015-.021-.021-.021h-.211c-.018.009-.02.014-.02.02v.507c0 .013.005.026.015.036s.022.015.036.015h.694c.021-.011.023-.017.023-.023 0-.077-.03-.15-.084-.204s-.127-.085-.204-.085h-.122c-.014 0-.028-.002-.04-.008s-.025-.013-.034-.023-.018-.021-.023-.034-.008-.027-.008-.041z" fill="#000"/><g fill="#010002"><path d="M21.954 23.796h.811v-1.844h-.811v1.844z"/><path d="M20.189 24.521l.777-1.283c.041-.07.077-.144.106-.22.05-.13.193-.35.673-.43l.198-.039c.008.195.207.375.357.375.178 0 .419-.116.466-.367l.019.004c.176.031.282.053.429.133.178.097.255.09.366.232.002.002.082.239.169.549.159.567.302 1.437.302 1.437l-.604.101-.144-.873.029.818-.043 1.974h-1.97l-.089-2.77-.5.751-.541-.39z"/><path d="M23.297 26.741l.005.16c.017.578.112 1.231.07 1.807l-.408 5.558h-.336l-.22-6.334c-.002-.025-.014-.048-.033-.065s-.043-.025-.068-.024-.049.008-.068.024a.1.1 0 0 0-.033.065l-.226 6.334h-.332l-.408-5.563c-.042-.573.044-1.192.067-1.766l.007-.165 1.982-.031zm.035-5.412a.29.29 0 0 1-.093.201.27.27 0 0 1-.066.053c-.024.011-.049.017-.075.018-.014.001-.028.001-.042-.002-.023.115-.066.208-.129.287-.076.097-.172.177-.282.233-.121.061-.251.105-.385.13l-.268.041c-.044-.001-.086-.015-.122-.04-.068-.043-.123-.104-.157-.176a1.58 1.58 0 0 1-.162-.782l.015-.151.007-.045a.22.22 0 0 0 .022.025l.013.013c0-.009-.002-.018-.004-.027a1.74 1.74 0 0 1-.018-.318c.004-.076.016-.152.038-.225l.036-.108.033-.088.01-.032.016.008c.112.05.229.104.351.124a1.36 1.36 0 0 0 .253.016c.074-.001.148-.012.219-.031.048-.017.093-.041.134-.072l.018-.012c.027.043.019.054.041.074a.66.66 0 0 1 .137.186c.069.133.065.227.067.373l.009.212c.009-.008.032-.053.043-.058.032-.016.067-.023.103-.02.011 0 .021.002.032.003.017.003.033.008.049.016l.042.023c.02.011.033.048.05.062a1.29 1.29 0 0 0 .022-.094l.038.151c.002.01.004.021.004.031z"/><path d="M21.602 21.149a.27.27 0 0 1-.054-.078.45.45 0 0 1-.03-.197l.021-.264c.001-.039.004-.078.011-.117.003-.05.001-.101-.005-.151h-.018c-.063.001-.125.017-.181.046 0-.076.041-.145.087-.204.091-.118.204-.218.332-.294a.83.83 0 0 1 .189-.088l.02-.005c.008-.002.017-.003.025-.004.005-.007.011-.013.017-.019.055-.047.123-.077.195-.087a1.19 1.19 0 0 1 .143-.015l.178-.005.19.008c.054.003.108.017.157.04.036.019.069.043.097.073.015.017.018.019.022.02s.015.004.022.007c.023.009.045.021.066.034a.38.38 0 0 1 .104.105c.033.043.051.094.053.148s.02.099.008.148a.42.42 0 0 0 .002.06c.013.038-.005.033.008.071.025.075.046.192.063.269a.83.83 0 0 1 .016.238 1.84 1.84 0 0 1-.036.242l-.03.135c-.018-.014-.032-.05-.05-.062l-.042-.023c-.016-.008-.033-.013-.05-.016l-.031-.003c-.035-.003-.071.004-.103.02-.011.006-.044.065-.053.072 0-.038-.032-.178-.033-.216-.002-.148.011-.252-.058-.384-.036-.069-.055-.134-.112-.186-.022-.02-.014-.031-.032-.063-.014-.007-.022-.002-.027.002-.041.032-.086.056-.134.074a.86.86 0 0 1-.219.031 1.35 1.35 0 0 1-.253-.016c-.122-.019-.239-.073-.351-.124l-.016-.008-.005.017-.038.103-.037.108a.99.99 0 0 0-.038.226c-.003.106.003.213.018.318l.004.027-.015-.013z"/></g></svg>