<svg xmlns="http://www.w3.org/2000/svg" width="48" height="48" fill="none" xmlns:v="https://vecta.io/nano"><path d="M41.829 36.47l-5.486 3.257.674-3.257-.674-3.257 5.486 3.257z" fill="#28282d"/><path d="M36.98 36.509H15.037" stroke="#28282d" stroke-width="1.371"/><path d="M16.056 25.996l1.037-.21c.436-.074.938-.111 1.506-.111.411 0 .757.058 1.037.173.28.107.514.267.704.481.058-.041.148-.099.272-.173s.276-.144.457-.21c.181-.074.383-.136.605-.185.222-.058.461-.086.716-.086.494 0 .897.074 1.21.222.313.14.555.341.728.605.181.263.3.576.358.938.066.362.099.757.099 1.185v3.604h-1.148v-3.357c0-.379-.021-.704-.062-.975-.033-.271-.103-.498-.21-.679-.099-.181-.239-.313-.42-.395-.173-.091-.399-.136-.679-.136-.387 0-.708.054-.963.161-.247.099-.416.189-.506.271a4.24 4.24 0 0 1 .148.703c.033.255.049.523.049.802v3.604h-1.148v-3.357c0-.379-.021-.704-.062-.975s-.115-.498-.222-.679c-.099-.181-.239-.313-.42-.395-.173-.091-.395-.136-.667-.136l-.37.012-.383.037-.321.037-.197.037v5.419h-1.148v-6.233z" fill="#00f"/><path d="M32.436 17.974a2.12 2.12 0 0 1-.185.864c-.115.272-.271.543-.469.815-.197.263-.42.527-.666.79l-.741.753-.494.494-.518.593c-.165.206-.305.403-.42.592-.107.189-.16.354-.16.494h3.937v.975h-5.184a.9.9 0 0 1-.012-.148v-.136c0-.387.062-.745.185-1.074a4.58 4.58 0 0 1 .506-.95c.206-.296.436-.576.691-.839l.753-.765.58-.58a5.97 5.97 0 0 0 .494-.58c.148-.198.263-.399.346-.605.091-.206.136-.424.136-.654 0-.247-.041-.457-.123-.629-.074-.173-.177-.317-.309-.432s-.288-.198-.469-.247c-.173-.058-.358-.086-.555-.086a2.06 2.06 0 0 0-.654.099c-.197.066-.374.144-.531.235-.156.082-.288.173-.395.271l-.247.21-.568-.815c.074-.082.185-.181.333-.296a2.95 2.95 0 0 1 .531-.346c.206-.107.436-.197.691-.272s.531-.111.827-.111c.897 0 1.568.21 2.012.63.453.412.679.996.679 1.753z" fill="red"/><path d="M9.429 9.6l3.257 5.486-3.257-.674-3.257.674L9.429 9.6z" fill="#28282d"/><path stroke="#28282d" stroke-width="1.371" d="M9.413 14.244v21.943"/></svg>