<svg width="90" height="64" viewBox="0 0 90 64" fill="none" xmlns="http://www.w3.org/2000/svg">
<path d="M88.1457 10.0145C87.1086 6.09851 84.0686 3.01159 80.2135 1.95715C73.1707 0 44.999 0 44.999 0C44.999 0 16.8283 0 9.78554 1.88294C6.00459 2.93628 2.89051 6.09906 1.8534 10.0145C0 17.1669 0 32 0 32C0 32 0 46.9079 1.8534 53.9855C2.89161 57.9009 5.93043 60.9878 9.78609 62.0423C16.9025 64 45.0001 64 45.0001 64C45.0001 64 73.1707 64 80.2135 62.1171C84.0692 61.0632 87.1086 57.9762 88.1468 54.0608C89.9996 46.9079 89.9996 32.0753 89.9996 32.0753C89.9996 32.0753 90.0738 17.1669 88.1457 10.0145ZM36.0297 45.7034V18.2966L59.4559 32L36.0297 45.7034Z" fill="#28282D"/>
</svg>
