<svg width="608" height="640" viewBox="0 0 608 640" fill="none" xmlns="http://www.w3.org/2000/svg">
<path d="M532.65 630.374C532.33 631.787 530.7 637.652 530.192 639.205H500.212V637.446C505.619 637.004 505.996 636.666 505.996 632.251V611.713C505.996 607.136 505.308 606.835 501.146 606.496V604.708H519.933C525.898 604.708 528.045 604.649 528.832 604.598C528.889 605.679 529.167 609.896 529.405 613.016L527.283 613.281C526.849 611.632 526.082 610.068 525.022 608.667C523.997 607.364 523.022 607.033 519.827 607.033H515.378C513.28 607.033 513.084 607.158 513.084 608.866V620.161H519.13C522.826 620.161 523.317 619.366 524.137 615.657H526.275V627.166H524.137C523.26 623.281 522.785 622.685 519.073 622.685H513.059V632.317C513.059 635.996 513.592 636.82 517 636.879H521.638C525.046 636.879 525.833 636.467 527.127 635.054C528.525 633.48 529.688 631.749 530.585 629.903L532.65 630.374Z" fill="#323232" fill-opacity="0.1"/>
<path d="M498.484 639.529C497.984 639.529 497.296 639.529 496.575 639.455C490.192 639.161 487.972 637.88 485.923 635.283C483.629 632.442 481.769 629.175 479.811 626.158C478.819 624.635 478.016 624.318 475.714 624.318L474.231 624.282V632.222C474.231 636.593 474.837 636.924 479.368 637.373V639.168H462.121V637.373C466.75 636.931 467.234 636.585 467.234 632.222V611.617C467.234 607.32 466.628 606.886 462.121 606.51V604.722H478.508C483.424 604.722 486.39 605.23 488.75 606.658C490.03 607.423 491.068 608.472 491.764 609.703C492.46 610.934 492.791 612.306 492.724 613.685C492.724 618.35 489.323 620.97 485.268 622.457C486.218 624.068 488.594 627.549 490.364 629.962C491.723 631.895 493.243 633.733 494.911 635.459C495.913 636.597 497.285 637.426 498.836 637.829L498.484 639.529ZM476.255 622.243C478.975 622.243 480.925 621.853 482.285 620.808C484.358 619.337 485.227 617.254 485.227 614.495C485.227 608.865 481.417 606.827 477.681 606.827C476.042 606.827 475.222 607.04 474.821 607.357C474.42 607.673 474.231 608.299 474.231 609.469V622.243H476.255Z" fill="#323232" fill-opacity="0.1"/>
<path d="M459.081 606.563C455.329 606.843 454.165 607.799 454.001 609.889C453.87 611.361 453.747 613.304 453.747 617.417V623.929C453.747 628.786 452.928 633.23 449.585 636.439C446.848 638.999 442.719 640 438.573 640C434.845 640 431.035 639.264 428.323 637.359C424.857 634.989 423.186 631.612 423.186 625.585V612.089C423.186 607.255 422.678 606.902 418.106 606.526V604.738H435.386V606.563C430.863 606.902 430.347 607.299 430.347 612.126V625.923C430.347 632.487 433.886 636.52 440.466 636.52C447.963 636.52 450.888 631.862 450.888 623.613V617.38C450.888 613.296 450.707 611.354 450.593 609.816C450.371 607.402 448.823 606.74 444.611 606.526V604.738H459.081V606.563Z" fill="#323232" fill-opacity="0.1"/>
<path d="M411.543 613.605C411.059 611.871 410.283 610.213 409.24 608.69C408.216 607.468 407.7 607.063 404.324 607.063H399.802V632.318C399.802 636.659 400.351 637.064 405.725 637.417V639.213H386.971V637.417C392.149 637.064 392.657 636.681 392.657 632.318V607.063H388.437C385.16 607.063 384.209 607.483 383.136 608.866C382.164 610.366 381.407 611.971 380.883 613.642H378.802C379.195 609.963 379.621 606.136 379.728 603.45H381.366C382.251 604.686 382.939 604.738 384.644 604.738H408.184C408.808 604.802 409.44 604.716 410.015 604.49C410.591 604.264 411.089 603.905 411.461 603.45H413.1C413.141 605.768 413.378 610.132 413.673 613.443L411.543 613.605Z" fill="#323232" fill-opacity="0.1"/>
<path d="M374.18 630.286C373.278 633.125 372.184 635.912 370.903 638.63C367.352 639.419 363.718 639.868 360.063 639.969C344.814 639.969 338.039 631.066 338.039 622.31C338.039 611.398 347.297 603.966 361.128 603.966C366.24 603.966 370.64 605.018 372.279 605.217C372.549 607.667 372.967 611.331 373.402 613.774L371.222 614.142C370.009 610.213 368.363 608.182 365.274 607.071C363.511 606.491 361.645 606.207 359.768 606.232C350.804 606.232 346.207 612.663 346.207 621.132C346.207 631.015 351.877 637.585 360.472 637.585C365.806 637.585 368.985 635.194 372.107 629.55L374.18 630.286Z" fill="#323232" fill-opacity="0.1"/>
<path d="M319.948 639.175V637.379C323.708 636.923 323.872 636.357 323.045 634.171C322.397 632.42 321.406 629.94 320.365 627.394H308.419C307.674 629.293 306.822 631.331 306.15 633.156C304.888 636.533 306.101 636.953 310.82 637.379V639.175H296.58V637.379C300.3 636.96 301.242 636.519 303.274 631.956L315.564 604.414L318.022 603.995C321.775 613.156 325.806 622.795 329.599 631.75C331.681 636.57 332.213 636.96 336.154 637.379V639.175H319.948ZM314.515 612.832C312.737 616.901 310.959 620.926 309.386 624.878H319.341L314.515 612.832Z" fill="#323232" fill-opacity="0.1"/>
<path d="M296.646 613.347C296.166 611.71 295.37 610.161 294.294 608.77C293.098 607.387 292.287 607.1 289.288 607.1H284.2C282.299 607.1 282.086 607.225 282.086 608.932V620.706H288.747C292.5 620.706 292.91 619.97 293.795 616.291H295.835V627.814H293.737C293.041 624.172 292.328 623.289 288.747 623.289H282.086V631.979C282.086 636.762 282.52 637.079 287.822 637.432V639.227H269.796V637.432C274.376 637.079 274.909 636.747 274.909 631.979V611.964C274.909 607.284 274.36 606.938 269.796 606.577V604.789H289.378C294.532 604.789 297.154 604.73 298.121 604.679C298.178 605.937 298.457 610.19 298.752 613.119L296.646 613.347Z" fill="#323232" fill-opacity="0.1"/>
<path d="M266.829 606.177C263.068 606.457 261.913 607.414 261.749 609.504C261.61 610.975 261.495 612.918 261.495 617.031V623.544C261.495 628.4 260.676 632.845 257.325 636.053C254.588 638.614 250.467 639.615 246.321 639.615C242.593 639.615 238.775 638.879 236.071 636.973C232.605 634.603 230.934 631.226 230.934 625.199V611.704C230.934 606.869 230.417 606.516 225.854 606.141V604.353H243.134V606.177C238.611 606.516 238.095 606.913 238.095 611.74V625.538C238.095 632.102 241.634 636.134 248.214 636.134C255.711 636.134 258.628 631.476 258.628 623.227V616.994C258.628 612.911 258.455 610.968 258.333 609.43C258.12 607.016 256.571 606.354 252.36 606.141V604.353H266.829V606.177Z" fill="#323232" fill-opacity="0.1"/>
<path d="M222.019 606.563C218.357 606.968 217.202 607.608 217.021 610.007C216.882 611.942 216.726 613.892 216.726 618.616V639.757H213.793L188.967 612.84V625.261C188.967 629.926 189.106 632.104 189.262 633.635C189.459 636.1 190.778 637.167 195.104 637.417V639.212H180.577V637.417C184.043 637.152 185.493 636.357 185.812 633.833C186.093 630.976 186.202 628.107 186.14 625.239V612.31C186.14 610.654 186.025 609.602 184.919 608.3C183.813 606.997 182.461 606.762 179.864 606.526V604.738H190.442L213.81 629.323V618.579C213.81 613.855 213.728 611.92 213.547 610.095C213.375 607.777 212.286 606.791 207.451 606.526V604.738H222.019V606.563Z" fill="#323232" fill-opacity="0.1"/>
<path d="M162.56 639.175V637.379C166.321 636.923 166.485 636.357 165.657 634.171C165.01 632.42 164.018 629.94 162.97 627.394H151.032C150.286 629.293 149.393 631.331 148.762 633.156C147.5 636.533 148.713 636.953 153.432 637.379V639.175H139.192V637.379C142.912 636.96 143.854 636.519 145.878 631.956L158.168 604.414L160.667 603.995C164.42 613.156 168.451 622.795 172.245 631.75C174.326 636.57 174.858 636.96 178.799 637.379V639.175H162.56ZM157.119 612.832C155.35 616.901 153.572 620.926 151.999 624.878H161.954L157.119 612.832Z" fill="#323232" fill-opacity="0.1"/>
<path d="M120.24 638.79V636.994C124.845 636.575 125.099 636.259 125.083 631.108V610.107C120.593 619.423 114.857 631.306 111.367 638.79H109.564C106.369 631.49 101.313 619.982 96.9873 610.6C96.1679 627.907 96.1188 631.505 96.1188 633.094C96.1761 635.994 97.4543 636.627 101.74 636.994V638.79H87.3354V636.994C90.7193 636.715 92.2515 636.111 92.6775 633.043C92.9561 631.196 93.1364 628.562 94.5538 610.431C94.7505 607.811 94.2753 606.567 89.1625 606.141V604.353H101.035L112.997 628.937L125.337 604.353H137.037V606.177C132.195 606.641 131.621 607.083 131.744 611.137L132.129 631.174C132.252 636.259 132.465 636.487 137.389 637.061V638.856L120.24 638.79Z" fill="#323232" fill-opacity="0.1"/>
<path d="M337.593 587.054V585.7C341.066 585.384 341.258 585.117 341.245 581.26V565.418C337.883 572.445 333.544 581.382 330.912 587.032H329.558C327.148 581.526 323.328 572.845 320.065 565.768C319.447 578.823 319.41 581.537 319.41 582.736C319.453 584.923 320.423 585.4 323.65 585.678V587.032H312.772V585.678C315.324 585.467 316.48 585.012 316.808 582.697C317.012 581.304 317.148 579.317 318.217 565.64C318.365 563.664 318.007 562.726 314.15 562.404V561.056H323.106L332.135 579.6L341.437 561.056H350.262V562.404C346.61 562.754 346.177 563.087 346.27 566.145L346.56 581.26C346.653 585.095 346.814 585.267 350.528 585.7V587.054H337.593Z" fill="#323232" fill-opacity="0.1"/>
<path d="M296.586 587.054V585.7C300.059 585.395 300.442 585.184 300.442 581.815V566.356C300.442 562.976 300.028 562.71 296.586 562.426V561.078H309.694V562.426C306.233 562.737 305.819 562.981 305.819 566.356V581.809C305.819 585.139 306.202 585.367 309.694 585.694V587.049L296.586 587.054Z" fill="#323232" fill-opacity="0.1"/>
<path d="M285.251 572.828C289.781 573.544 293.137 575.486 293.137 579.316C293.099 580.586 292.68 581.823 291.925 582.897C291.17 583.972 290.107 584.844 288.848 585.422C286.561 586.532 283.903 587.059 280.659 587.059H268.724V585.705C272.278 585.388 272.587 585.15 272.587 581.819V566.328C272.587 562.998 272.074 562.653 268.755 562.443V561.094H281.629C284.997 561.094 287.117 561.532 288.774 562.492C289.607 562.964 290.291 563.62 290.761 564.398C291.231 565.175 291.47 566.048 291.456 566.933C291.431 570.396 288.001 572.295 285.251 572.828ZM279.781 572.322C284.243 572.322 285.961 570.657 285.961 567.571C285.961 564.335 283.638 562.72 280.554 562.72C279.789 562.659 279.019 562.779 278.322 563.07C277.877 563.336 277.859 563.725 277.859 564.735V572.339L279.781 572.322ZM277.859 581.758C277.859 584.633 279.095 585.46 281.746 585.433C284.552 585.405 287.309 583.573 287.309 579.688C287.309 575.803 284.769 573.932 279.627 573.932H277.834L277.859 581.758Z" fill="#323232" fill-opacity="0.1"/>
<path d="M304.234 553.84V363.374L0 177.698V365.318L304.234 553.84Z" fill="#E8CFCF"/>
<path d="M304.234 553.839L608 365.585L607.509 178.148L303.754 363.062L304.234 553.839Z" fill="#00FF00" fill-opacity="0.1"/>
<path d="M0 178.229L303.743 363.276L607.509 178.229L299.538 0L0 178.229Z" fill="#CFCFE8"/>
</svg>
