<svg width="300" height="380" viewBox="0 0 300 380" fill="none" xmlns="http://www.w3.org/2000/svg">
<path d="M262.821 374.285C262.663 375.124 261.858 378.606 261.608 379.528H246.815V378.484C249.483 378.221 249.669 378.02 249.669 375.399V363.205C249.669 360.487 249.33 360.308 247.276 360.107V359.046H256.546C259.489 359.046 260.548 359.011 260.937 358.98C260.965 359.622 261.102 362.126 261.22 363.978L260.173 364.136C259.958 363.157 259.58 362.228 259.057 361.396C258.551 360.623 258.07 360.426 256.494 360.426H254.298C253.263 360.426 253.166 360.5 253.166 361.514V368.221H256.15C257.973 368.221 258.216 367.749 258.62 365.547H259.675V372.38H258.62C258.187 370.073 257.953 369.719 256.122 369.719H253.154V375.438C253.154 377.623 253.417 378.112 255.099 378.147H257.387C259.069 378.147 259.457 377.903 260.096 377.064C260.786 376.129 261.359 375.101 261.802 374.005L262.821 374.285Z" fill="#323232" fill-opacity="0.1"/>
<path d="M245.962 379.72C245.716 379.72 245.376 379.72 245.02 379.677C241.871 379.502 240.775 378.742 239.765 377.199C238.633 375.513 237.715 373.573 236.749 371.781C236.26 370.877 235.863 370.689 234.727 370.689L233.996 370.667V375.382C233.996 377.977 234.295 378.174 236.53 378.44V379.506H228.02V378.44C230.304 378.178 230.543 377.973 230.543 375.382V363.148C230.543 360.596 230.244 360.338 228.02 360.116V359.054H236.106C238.532 359.054 239.995 359.355 241.159 360.203C241.791 360.657 242.303 361.28 242.647 362.011C242.99 362.742 243.153 363.556 243.12 364.376C243.12 367.146 241.442 368.701 239.441 369.584C239.91 370.541 241.083 372.607 241.956 374.04C242.627 375.188 243.377 376.279 244.2 377.304C244.694 377.98 245.371 378.472 246.136 378.711L245.962 379.72ZM234.994 369.457C236.336 369.457 237.299 369.225 237.97 368.605C238.993 367.731 239.421 366.495 239.421 364.856C239.421 361.514 237.541 360.303 235.698 360.303C234.889 360.303 234.485 360.43 234.287 360.618C234.089 360.806 233.996 361.177 233.996 361.872V369.457H234.994Z" fill="#323232" fill-opacity="0.1"/>
<path d="M226.52 360.147C224.669 360.313 224.095 360.881 224.014 362.122C223.949 362.995 223.888 364.149 223.888 366.591V370.458C223.888 373.341 223.484 375.98 221.835 377.885C220.484 379.406 218.447 380 216.401 380C214.562 380 212.682 379.563 211.344 378.431C209.633 377.025 208.809 375.019 208.809 371.441V363.428C208.809 360.557 208.558 360.348 206.302 360.125V359.063H214.828V360.147C212.597 360.348 212.342 360.584 212.342 363.45V371.642C212.342 375.539 214.089 377.933 217.335 377.933C221.034 377.933 222.477 375.168 222.477 370.27V366.569C222.477 364.144 222.389 362.991 222.332 362.078C222.223 360.645 221.459 360.252 219.381 360.125V359.063H226.52V360.147Z" fill="#323232" fill-opacity="0.1"/>
<path d="M203.064 364.328C202.825 363.298 202.442 362.314 201.928 361.41C201.423 360.684 201.168 360.444 199.502 360.444H197.271V375.439C197.271 378.017 197.541 378.257 200.194 378.467V379.533H190.939V378.467C193.495 378.257 193.745 378.03 193.745 375.439V360.444H191.663C190.046 360.444 189.577 360.693 189.047 361.514C188.568 362.405 188.194 363.358 187.936 364.35H186.909C187.103 362.165 187.313 359.893 187.366 358.299H188.174C188.611 359.033 188.95 359.063 189.791 359.063H201.406C201.714 359.101 202.026 359.05 202.31 358.916C202.594 358.782 202.84 358.569 203.023 358.299H203.832C203.852 359.675 203.97 362.266 204.115 364.232L203.064 364.328Z" fill="#323232" fill-opacity="0.1"/>
<path d="M184.628 374.232C184.183 375.918 183.643 377.573 183.011 379.187C181.259 379.655 179.466 379.922 177.662 379.982C170.139 379.982 166.795 374.696 166.795 369.497C166.795 363.017 171.364 358.605 178.188 358.605C180.711 358.605 182.882 359.23 183.69 359.348C183.824 360.802 184.03 362.978 184.244 364.429L183.169 364.647C182.57 362.314 181.758 361.108 180.234 360.449C179.364 360.104 178.443 359.936 177.517 359.95C173.094 359.95 170.826 363.769 170.826 368.798C170.826 374.665 173.624 378.566 177.865 378.566C180.496 378.566 182.065 377.147 183.605 373.796L184.628 374.232Z" fill="#323232" fill-opacity="0.1"/>
<path d="M157.869 379.51V378.444C159.725 378.173 159.805 377.837 159.397 376.539C159.078 375.499 158.589 374.027 158.075 372.515H152.181C151.813 373.643 151.392 374.853 151.061 375.936C150.438 377.942 151.037 378.191 153.365 378.444V379.51H146.339V378.444C148.174 378.195 148.639 377.933 149.642 375.224L155.706 358.871L156.919 358.622C158.77 364.061 160.759 369.785 162.631 375.102C163.658 377.963 163.921 378.195 165.866 378.444V379.51H157.869ZM155.188 363.869C154.311 366.285 153.434 368.675 152.658 371.021H157.57L155.188 363.869Z" fill="#323232" fill-opacity="0.1"/>
<path d="M146.371 364.175C146.135 363.203 145.742 362.283 145.211 361.457C144.621 360.636 144.221 360.466 142.741 360.466H140.23C139.292 360.466 139.187 360.54 139.187 361.553V368.544H142.474C144.326 368.544 144.528 368.107 144.964 365.923H145.971V372.765H144.936C144.593 370.602 144.241 370.078 142.474 370.078H139.187V375.238C139.187 378.078 139.402 378.266 142.017 378.475V379.541H133.123V378.475C135.383 378.266 135.646 378.069 135.646 375.238V363.354C135.646 360.575 135.375 360.369 133.123 360.155V359.094H142.785C145.328 359.094 146.622 359.059 147.099 359.028C147.127 359.775 147.265 362.301 147.41 364.04L146.371 364.175Z" fill="#323232" fill-opacity="0.1"/>
<path d="M131.659 359.918C129.803 360.084 129.233 360.652 129.153 361.893C129.084 362.767 129.027 363.92 129.027 366.362V370.229C129.027 373.113 128.623 375.752 126.969 377.657C125.619 379.177 123.586 379.771 121.54 379.771C119.7 379.771 117.817 379.334 116.482 378.203C114.772 376.796 113.948 374.79 113.948 371.212V363.199C113.948 360.329 113.693 360.119 111.441 359.896V358.834H119.967V359.918C117.736 360.119 117.481 360.355 117.481 363.221V371.413C117.481 375.31 119.227 377.705 122.474 377.705C126.173 377.705 127.612 374.939 127.612 370.041V366.341C127.612 363.916 127.527 362.762 127.467 361.849C127.362 360.416 126.598 360.023 124.52 359.896V358.834H131.659V359.918Z" fill="#323232" fill-opacity="0.1"/>
<path d="M109.549 360.147C107.742 360.387 107.172 360.767 107.083 362.191C107.014 363.34 106.937 364.498 106.937 367.303V379.855H105.49L93.2402 363.874V371.248C93.2402 374.018 93.309 375.312 93.3858 376.22C93.4828 377.684 94.1337 378.318 96.2683 378.466V379.532H89.1004V378.466C90.8105 378.309 91.5261 377.837 91.6837 376.338C91.8221 374.642 91.8761 372.938 91.8455 371.235V363.559C91.8455 362.576 91.7889 361.951 91.2431 361.178C90.6973 360.404 90.0302 360.265 88.7487 360.125V359.063H93.9679L105.498 373.66V367.281C105.498 364.476 105.458 363.327 105.369 362.244C105.284 360.868 104.746 360.282 102.361 360.125V359.063H109.549V360.147Z" fill="#323232" fill-opacity="0.1"/>
<path d="M80.2105 379.51V378.444C82.0662 378.173 82.147 377.837 81.7387 376.539C81.4193 375.499 80.9301 374.027 80.4126 372.515H74.5222C74.1543 373.643 73.7137 374.853 73.4024 375.936C72.7798 377.942 73.3781 378.191 75.7068 378.444V379.51H68.6804V378.444C70.5158 378.195 70.9807 377.933 71.9793 375.224L78.0435 358.871L79.2766 358.622C81.1282 364.061 83.1173 369.785 84.9891 375.102C86.016 377.963 86.2788 378.195 88.2234 378.444V379.51H80.2105ZM77.5261 363.869C76.6528 366.285 75.7755 368.675 74.9993 371.021H79.9113L77.5261 363.869Z" fill="#323232" fill-opacity="0.1"/>
<path d="M59.3291 379.282V378.215C61.6012 377.966 61.7265 377.779 61.7185 374.72V362.251C59.503 367.782 56.673 374.838 54.9508 379.282H54.0613C52.4846 374.947 49.9902 368.114 47.8556 362.544C47.4513 372.82 47.4271 374.956 47.4271 375.9C47.4554 377.621 48.086 377.997 50.2004 378.215V379.282H43.0931V378.215C44.7628 378.049 45.5188 377.691 45.7291 375.869C45.8665 374.773 45.9555 373.209 46.6549 362.443C46.7519 360.888 46.5174 360.149 43.9947 359.896V358.834H49.8528L55.7553 373.431L61.8438 358.834H67.6169V359.918C65.2276 360.193 64.9446 360.455 65.0053 362.863L65.1953 374.76C65.2559 377.779 65.361 377.914 67.7908 378.255V379.321L59.3291 379.282Z" fill="#323232" fill-opacity="0.1"/>
<path d="M166.575 348.563V347.759C168.289 347.571 168.384 347.413 168.378 345.123V335.717C166.719 339.889 164.578 345.195 163.279 348.55H162.611C161.422 345.281 159.537 340.127 157.927 335.925C157.622 343.676 157.604 345.288 157.604 345.999C157.625 347.298 158.104 347.581 159.696 347.746V348.55H154.328V347.746C155.588 347.621 156.158 347.351 156.32 345.976C156.42 345.149 156.487 343.969 157.015 335.849C157.088 334.676 156.911 334.119 155.008 333.928V333.127H159.427L163.883 344.137L168.472 333.127H172.827V333.928C171.025 334.135 170.811 334.333 170.857 336.149L171 345.123C171.046 347.4 171.125 347.502 172.958 347.759V348.563H166.575Z" fill="#323232" fill-opacity="0.1"/>
<path d="M146.342 348.563V347.759C148.055 347.578 148.244 347.453 148.244 345.452V336.274C148.244 334.267 148.04 334.109 146.342 333.941V333.14H152.81V333.941C151.102 334.125 150.898 334.27 150.898 336.274V345.449C150.898 347.426 151.087 347.562 152.81 347.756V348.56L146.342 348.563Z" fill="#323232" fill-opacity="0.1"/>
<path d="M140.749 340.116C142.984 340.542 144.64 341.695 144.64 343.969C144.621 344.723 144.414 345.458 144.042 346.095C143.67 346.733 143.145 347.251 142.524 347.594C141.395 348.253 140.084 348.566 138.483 348.566H132.594V347.762C134.348 347.574 134.5 347.433 134.5 345.455V336.257C134.5 334.28 134.247 334.076 132.609 333.95V333.15H138.962C140.624 333.15 141.67 333.41 142.487 333.98C142.898 334.26 143.236 334.65 143.467 335.111C143.699 335.573 143.817 336.091 143.81 336.616C143.798 338.673 142.106 339.8 140.749 340.116ZM138.05 339.817C140.252 339.817 141.099 338.828 141.099 336.995C141.099 335.074 139.953 334.115 138.431 334.115C138.054 334.079 137.674 334.15 137.33 334.323C137.111 334.481 137.101 334.712 137.101 335.311V339.826L138.05 339.817ZM137.101 345.419C137.101 347.126 137.711 347.617 139.02 347.601C140.404 347.584 141.764 346.497 141.764 344.19C141.764 341.883 140.511 340.772 137.974 340.772H137.089L137.101 345.419Z" fill="#323232" fill-opacity="0.1"/>
<path d="M150.116 328.842V215.753L0 105.508V216.907L150.116 328.842Z" fill="#E8CFCF"/>
<path d="M150.116 328.842L300 217.066L299.758 105.776L149.879 215.568L150.116 328.842Z" fill="#00FF00" fill-opacity="0.1"/>
<path d="M0 105.824L149.873 215.695L299.758 105.824L147.798 0L0 105.824Z" fill="#CFCFE8"/>
</svg>
