<svg xmlns="http://www.w3.org/2000/svg" width="48" height="48" fill="none" xmlns:v="https://vecta.io/nano"><path d="M24.622 22.995h-.988l-.141-.917.212-.459-.529-.564-.353-1.27-.212-.423v-.776l-.388-.811v.282l-.247.529-.176-.176-1.623 1.376-1.2-1.2.247-.282.177-.247.106-.423-.282.141-.247.141.106-.635-.106-1.129.247-.6v-.423-.459l.953-.776h.564l-.282-.423.529-.176.176.388v-.388l.811-.459.635.282.353-.847-.529.706-.459-.353.847-.917h.353l.212-.706h.317v-.706l.353-.565h.318v-.247l-.318-.212.882-.917-.176-.247.494-.141V7.79l-.212-.282.282-.353h.423l-.071-.282.212-.388.106-.247.282-.212-.176-.141-.106-.318.423-.282v.6l.212-.247.106-.282-.106-.318.388-.318v.388l.282-.071-.141-.423.388-.212v.635l.212-.318.212.176.177-.176-.282-.388.247-.176.706.353-.071-.953.318.247.141-.706.212.176V2.99h.282l-.353 1.27h.247l.318-1.129.141-.035-.035.706h.247V3.06l.529-.318v.247l-.106.565h.176l.176-.565.988.6-.353.282h-.494l.035.212.882.423-.565.847-.529-.247-.071.635.494-.212v.706l.176.141.847.706-.141.318-.212.67.847 1.2-.106.212.106 1.058h.282v.459l.353.388-.176.529.988.706v.494l-1.552 2.823-2.681 1.27-.706-.6-.564-.141.07-.741.071-.6-.247-.282-.176-1.164.494-.706 1.058-1.835.423-.388-.07-.459-.67-.423-.917.071-.423.6-.176.741.282.423-.282.565-1.235 1.2-.564 1.2v1.799l1.058.917v.247l-1.341 1.588-.141 1.835-.247.776-.388.317h-.529l-.318.282v.565zm8.786-3.775l-.176.564.459.6.317.388.212.529.353.317v-.317h.318l.141.423.247-.282.459-.141.318.317.247.212-.106.811.847.529.141.318h.459l.388.282-.388.635h-.706l.706 1.129 1.517-.635.388.635c0 .153.035.459.176.459h.6l.494.318.141.459h.706l.67-.459.564.459h1.941l-.106 1.023.494.529-.212.67-.776.459v.565l-1.094.741-1.482 1.305-.847.282-1.27.388v-.67l-.988.282-.706 1.588v.776l-.565.141-.106 1.799-.247.141v.776l-.529.353.776.67 1.023.6.847-.318h1.27l.141-.282 1.517-1.341 1.447-.459.388.459.423-.212.6.353 1.447-.141v5.504l-.423.423-1.129.282-.388.882-1.658.282-.529-.282h-1.235l-.459.953-1.411-.141-1.376-.529-.741-1.164-.529.141-.106-.847.423.141-.318-1.094h-.494l-.212-1.341h-2.293l.494.741-.741.459-.741-.706v.6l1.623 1.905-.141.882-1.482-.741-1.27.317-1.764-2.258-.247-2.046-1.517-1.023-1.2-.988-.388.106-1.094-.776.529-.176-.529-.282v-.635l-.494-.423-.247.565-.317-.565v-.494l-1.305.494.353.423-.212.141v.776l1.164.953.317 1.023.988.741 1.058.247-.353.459 1.905.917.635.706v.494l-.353-.141-.141-.106-.141-.388-.176-.106-.6-.212c-.118.235-.353.755-.353.953s.329.388.494.459l-.141.459-.353.247v.459l-.247.423-.176.282h-.494v-.282l.141-.423V43.6l.353-.141-.212-.247-.282-.741v-.565l-.282.141-.529-.388V41.2h-.494v-.106h-.247l-.317-.635h-.706l-1.941-1.87-.317-1.129-1.27-1.129-1.129.6-1.305.882-2.011-.882-.917.529-.176 1.411-1.129.459-1.164.141-.106.247-1.411 1.376.176 1.2-1.164.917h-.67l-.953.847-2.364-.459-1.305.459-.741-1.764-1.905-.494.494-1.623-.176-.953 1.588-3.246.141-1.517 1.623-.282 2.858 1.235 2.399.706.988-2.999-.565-1.905-1.376-.882-.318-.282.176-.318-.176-.388.318-.141.423-.176v.318h.353l.176-.141h.423v.388l.953.141.141-.529-.141-.282.141-.388h.459v.388l.988.282.247-.564h.812l.353-.459.247-.67.811-.141.6-.212.917-.812.459-1.235v.6.635l.388-.317-.106-.459.106-.459h1.129l.177-.212h.564l.212.212.564-.212v-.247l-.141-.318v-.247l-.423-.318.423-.141v-.635-.141l-.423-.212.176-.388v-.635l.106-.317.141.317.247-.176.141-.141-.529-.247.282-.282.494-.07.388-.318.459-.353.141.494-.247.529v.388l.459.176-.459.529-.565 1.023.106.459v.353l.282.212.529-.106.035.247-.282.318.741-.106.494-.353h.282l.106-.106.212-.141.141.035-.035.212v.212l.6.706.529-.459.706-.247.247-.212.423-.247.388-.318h.423l.247.141v.423h.917l.282-.423-.176-.282h.635l.212-.318v-.317l-.353-.776v-.635l.141-.388.212-.67.317-.353h.388l.212.494.6.247.247-.388v-.741-.706l-.247.282-.282-.282-.318-.529.318-.565.882-.459.529-.176.423.176.882-.106-.176.494-.388.141-.106.247.67 1.058z" stroke="#000" stroke-width=".215"/><path d="M11.78 18.091l.565-.741h.176l1.094.388-.847.565v.388l1.341.317-.882 1.129-.141.282-.565.353.706.106.388.882.141.882.529.812-.141.388-.212.07.353.247-.071.67h-.212l.141.353.459-.212.635.564-1.023 1.2.529.459-.67.423-1.552-.353-.812.177-.529-.423-.67.388-1.482-.212 1.623-.953.529.317.6-.423-1.835-.494v-.529l.953-.141.07-.459V24.3l-.317.035v-.212l.247-.141-.106-.141.106-.247.388.247.635.141.176-.67.353-.247h-.353l-.176-.776.423-.282h-.882l-.564-.388.635-.529-.071-.494-.176.529-.388-.141.494-1.305-.494.212-.106-.282.494-.529-.388-.776.388-.212.176.6.318-.6zm-3.493 3.528h.318v-.529l.247-.318h.917v.212h.741l.141 1.164-.706.494-.176 1.2-.741.776-.741-.106-1.694.318-.388-1.235h.388l.529-.141.071-.459.353-.212-.423-.635.423-.141-.212-.247.212-.388h.318l.423.247z" stroke="#0f0" stroke-width=".071"/><path d="M6.734 8.847l-.635-.882-1.058-.706.071-.282.6.106.353-.282-.318-.106.247-.247-.847-.494.106-.176.6.141.353.282.141-.071-.247-.318.247-.035.106-.106-1.023-.529-.071-.282.6-.071.106-.106.318-.141.212.459.035-.67.282-.035.212 1.058-.212.318.035.318.247-.247.141.212.423-.529.141.529.106-.353h.423l.141.388.035-.212.106-.035.035.282h.353.353l.353-.141.282.67v.388l.282.318v.706l-.564.353-.565.282-1.235.247h-1.27z" stroke="#000" stroke-width=".236"/><g stroke-width=".071"><path d="M31.397 5.213l-.388-.988-.67.353-.494 1.623H28.68l-.706-.6-.776 1.235-2.046 2.752-.6 2.011v.6h-.6l-.6 1.094v1.023.953l.6.529-.6.353v.776.706l-.388.882h-.388" stroke="#f41212"/><path d="M24.622 25.077l.035.741-.247.353.247.247.247.776-.106.459.212.494-.071.282 1.27.565v.565l.388-.565.529.318.212.247.565.282.212.353h.565l.317.247.459-.247.317.247.353-.247h.635l.423.247h.282l-.282-.6.776-1.094.212-.318-.459-.988-.247-.776-.282-.247.282-.6.247-.494-.529-1.27h-2.611" stroke="#00f"/><path d="M25.011 28.57l-.529-.282v.282l-1.658.706.353.282v.353l.953 1.341-.423.388-.529.282.318.67-.67-.176-.459.176-.423.212-.459-.388-.353.388-.388-.388-.282.176-.706-.459-.953.282.776-1.764-1.129-.317-.423-1.2.423-.564-.247-.282.247-1.2h.353l.353-.741-.353-.247.565-.494-.212-.459" stroke="#f41212"/><path d="M23.882 34.85v-.706-.282l-.67-.141-.565-.353-.741-.106-.317.247-.318-.141-.071.247h-.459l.176.529-.67-.423-.353.917-.388-.776-.494.423h-.882v.776l-.494.247.247.353.247.141-.247.141v.318l.741.6" stroke="#00f"/></g><g filter="url(#A)"><path d="M26.845 32.486v-.494l.6.388.741-.071-.071-.318h.459v-.176l.494.071v-.176l.388-.106v-.282l.917-.141.212.282.353-.141.812.388-.635.494-.741 1.694-.635.388h-.67l-1.129.565-.494-.141-1.164-.67-.176-.565.176-.071.141-.423-.141-.282v-.318l.565.106z" stroke="#0f0" stroke-width=".071"/></g><defs><filter id="A" x="25.779" y="31.142" width="6.32" height="4.31" filterUnits="userSpaceOnUse" color-interpolation-filters="sRGB"><feFlood flood-opacity="0" result="A"/><feColorMatrix in="SourceAlpha" values="0 0 0 0 0 0 0 0 0 0 0 0 0 0 0 0 0 0 127 0"/><feOffset dy="0.282258"/><feGaussianBlur stdDeviation=".141"/><feColorMatrix values="0 0 0 0 0 0 0 0 0 0 0 0 0 0 0 0 0 0 0.25 0"/><feBlend in2="A"/><feBlend in="SourceGraphic"/></filter></defs></svg>