<svg width="48" height="48" viewBox="0 0 48 48" fill="none" xmlns="http://www.w3.org/2000/svg">
<ellipse cx="23.9291" cy="34.2565" rx="22.4535" ry="2.77204" fill="#EEEDED" fill-opacity="0.5"/>
<path d="M2.40009 33.7713L8.45834 25.8611H24.928L29.5882 20.5654H37.0022" stroke="#28282D" stroke-width="0.889247"/>
<path d="M36.7188 20.7531L41.5032 15.9052" stroke="#28282D" stroke-width="0.889247"/>
<path d="M40.0536 15.5619L41.1207 16.1387L41.7432 17.1961L43.166 13.6392L40.0536 15.5619Z" fill="#28282D" stroke="#28282D" stroke-width="0.105914"/>
<circle cx="13.1623" cy="26.0886" r="3.04885" fill="white" stroke="#28282D" stroke-width="1.01628"/>
<circle cx="37.8303" cy="14.5284" r="1.52442" fill="white" stroke="#28282D" stroke-width="0.508141"/>
<circle cx="32.0503" cy="23.8655" r="1.52442" fill="white" stroke="black" stroke-width="0.508141"/>
<circle cx="21.3796" cy="14.5284" r="3.04885" fill="white" stroke="#28282D" stroke-width="1.01628"/>
<path d="M12.9568 27.1616C13.1655 27.1616 13.3119 27.1291 13.3959 27.064C13.4799 26.9963 13.5219 26.9109 13.5219 26.8079C13.5219 26.7321 13.5029 26.667 13.465 26.6128C13.4298 26.5586 13.381 26.5112 13.3186 26.4705C13.259 26.4299 13.1886 26.3933 13.1073 26.3608C13.0287 26.3283 12.9474 26.2971 12.8634 26.2673C12.782 26.2375 12.7007 26.2049 12.6194 26.1697C12.5409 26.1318 12.4704 26.0871 12.4081 26.0356C12.3457 25.9814 12.2942 25.9177 12.2536 25.8445C12.2156 25.7686 12.1967 25.6765 12.1967 25.5681C12.1967 25.3757 12.2536 25.2185 12.3674 25.0965C12.4839 24.9719 12.652 24.8933 12.8715 24.8607V24.3933H13.2089V24.8485C13.3281 24.854 13.4392 24.8689 13.5422 24.8933C13.6452 24.9177 13.7265 24.9407 13.7861 24.9624L13.7089 25.2794C13.6439 25.2551 13.5626 25.2307 13.465 25.2063C13.3674 25.1792 13.2455 25.1656 13.0991 25.1656C12.9365 25.1656 12.8105 25.1968 12.7211 25.2591C12.6343 25.3215 12.591 25.4095 12.591 25.5234C12.591 25.5857 12.6032 25.6385 12.6276 25.6819C12.6547 25.7253 12.6926 25.7646 12.7414 25.7998C12.7902 25.8323 12.8471 25.8621 12.9121 25.8892C12.9799 25.9163 13.0544 25.9448 13.1357 25.9746C13.2414 26.0152 13.3417 26.0572 13.4365 26.1006C13.5314 26.144 13.614 26.1968 13.6845 26.2591C13.7577 26.3188 13.8159 26.3906 13.8593 26.4746C13.9027 26.5586 13.9243 26.6602 13.9243 26.7795C13.9243 26.9719 13.8661 27.1277 13.7495 27.247C13.633 27.3635 13.4528 27.4367 13.2089 27.4665V27.9909H12.8715V27.4787C12.6818 27.4733 12.5273 27.4529 12.4081 27.4177C12.2888 27.3798 12.1994 27.3445 12.1398 27.312L12.2414 27.0071C12.3227 27.0451 12.4203 27.0803 12.5341 27.1128C12.6479 27.1453 12.7888 27.1616 12.9568 27.1616Z" fill="#F41212"/>
<path d="M37.8583 14.618C37.9261 14.618 37.9737 14.6075 38.001 14.5863C38.0283 14.5643 38.0419 14.5365 38.0419 14.5031C38.0419 14.4784 38.0358 14.4573 38.0234 14.4397C38.012 14.422 37.9961 14.4066 37.9759 14.3934C37.9565 14.3802 37.9336 14.3683 37.9072 14.3577C37.8816 14.3472 37.8552 14.3371 37.8279 14.3274C37.8015 14.3177 37.7751 14.3071 37.7486 14.2957C37.7231 14.2833 37.7002 14.2688 37.6799 14.2521C37.6597 14.2344 37.6429 14.2137 37.6297 14.19C37.6174 14.1653 37.6112 14.1354 37.6112 14.1001C37.6112 14.0376 37.6297 13.9865 37.6667 13.9469C37.7046 13.9064 37.7592 13.8808 37.8305 13.8702V13.7183H37.9402V13.8663C37.979 13.868 38.0151 13.8729 38.0485 13.8808C38.082 13.8887 38.1084 13.8962 38.1278 13.9033L38.1027 14.0063C38.0816 13.9984 38.0551 13.9905 38.0234 13.9825C37.9917 13.9737 37.9521 13.9693 37.9045 13.9693C37.8517 13.9693 37.8107 13.9795 37.7817 13.9997C37.7535 14.02 37.7394 14.0486 37.7394 14.0856C37.7394 14.1058 37.7434 14.123 37.7513 14.1371C37.7601 14.1512 37.7724 14.164 37.7883 14.1754C37.8041 14.186 37.8226 14.1957 37.8438 14.2045C37.8658 14.2133 37.89 14.2226 37.9164 14.2322C37.9508 14.2455 37.9834 14.2591 38.0142 14.2732C38.045 14.2873 38.0719 14.3045 38.0948 14.3247C38.1186 14.3441 38.1375 14.3674 38.1516 14.3947C38.1657 14.422 38.1727 14.4551 38.1727 14.4938C38.1727 14.5564 38.1538 14.607 38.1159 14.6458C38.078 14.6836 38.0195 14.7074 37.9402 14.7171V14.8875H37.8305V14.7211C37.7689 14.7193 37.7187 14.7127 37.6799 14.7013C37.6412 14.6889 37.6121 14.6775 37.5927 14.6669L37.6258 14.5678C37.6522 14.5801 37.6839 14.5916 37.7209 14.6022C37.7579 14.6127 37.8037 14.618 37.8583 14.618Z" fill="#F41212"/>
<path d="M32.0494 24.3707C32.1364 24.3707 32.1974 24.3572 32.2324 24.3301C32.2674 24.3018 32.2849 24.2663 32.2849 24.2233C32.2849 24.1917 32.277 24.1646 32.2612 24.142C32.2465 24.1195 32.2261 24.0997 32.2002 24.0828C32.1753 24.0658 32.146 24.0506 32.1121 24.037C32.0794 24.0235 32.0455 24.0105 32.0105 23.9981C31.9766 23.9856 31.9427 23.9721 31.9088 23.9574C31.8761 23.9416 31.8467 23.923 31.8208 23.9015C31.7948 23.8789 31.7733 23.8524 31.7564 23.8219C31.7406 23.7903 31.7327 23.7519 31.7327 23.7067C31.7327 23.6266 31.7564 23.5611 31.8038 23.5103C31.8524 23.4583 31.9224 23.4256 32.0139 23.412V23.2172H32.1544V23.4069C32.2041 23.4092 32.2504 23.4154 32.2933 23.4256C32.3362 23.4357 32.3701 23.4453 32.395 23.4544L32.3628 23.5865C32.3357 23.5763 32.3018 23.5661 32.2612 23.556C32.2205 23.5447 32.1697 23.539 32.1087 23.539C32.041 23.539 31.9885 23.552 31.9512 23.578C31.9151 23.604 31.897 23.6407 31.897 23.6881C31.897 23.7141 31.9021 23.7361 31.9122 23.7542C31.9235 23.7722 31.9393 23.7886 31.9597 23.8033C31.98 23.8168 32.0037 23.8293 32.0308 23.8405C32.059 23.8518 32.0901 23.8637 32.124 23.8761C32.168 23.8931 32.2098 23.9106 32.2493 23.9286C32.2888 23.9467 32.3233 23.9687 32.3526 23.9947C32.3831 24.0195 32.4074 24.0494 32.4255 24.0845C32.4435 24.1195 32.4526 24.1618 32.4526 24.2115C32.4526 24.2917 32.4283 24.3566 32.3797 24.4063C32.3312 24.4548 32.2561 24.4853 32.1544 24.4977V24.7162H32.0139V24.5028C31.9348 24.5006 31.8704 24.4921 31.8208 24.4774C31.7711 24.4616 31.7338 24.4469 31.709 24.4334L31.7513 24.3063C31.7852 24.3221 31.8258 24.3368 31.8733 24.3504C31.9207 24.3639 31.9794 24.3707 32.0494 24.3707Z" fill="#00FF00"/>
<path d="M21.1744 15.6015C21.3831 15.6015 21.5294 15.569 21.6134 15.504C21.6974 15.4362 21.7394 15.3509 21.7394 15.2479C21.7394 15.172 21.7205 15.107 21.6825 15.0528C21.6473 14.9986 21.5985 14.9511 21.5362 14.9105C21.4766 14.8698 21.4061 14.8332 21.3248 14.8007C21.2462 14.7682 21.1649 14.737 21.0809 14.7072C20.9996 14.6774 20.9183 14.6449 20.837 14.6097C20.7584 14.5717 20.6879 14.527 20.6256 14.4755C20.5633 14.4213 20.5118 14.3576 20.4711 14.2844C20.4332 14.2086 20.4142 14.1164 20.4142 14.008C20.4142 13.8156 20.4711 13.6584 20.5849 13.5365C20.7015 13.4118 20.8695 13.3332 21.089 13.3007V12.8332H21.4264V13.2885C21.5457 13.2939 21.6568 13.3088 21.7598 13.3332C21.8627 13.3576 21.944 13.3806 22.0037 13.4023L21.9264 13.7194C21.8614 13.695 21.7801 13.6706 21.6825 13.6462C21.585 13.6191 21.463 13.6056 21.3167 13.6056C21.1541 13.6056 21.028 13.6367 20.9386 13.6991C20.8519 13.7614 20.8085 13.8495 20.8085 13.9633C20.8085 14.0256 20.8207 14.0785 20.8451 14.1218C20.8722 14.1652 20.9101 14.2045 20.9589 14.2397C21.0077 14.2722 21.0646 14.3021 21.1297 14.3292C21.1974 14.3563 21.2719 14.3847 21.3532 14.4145C21.4589 14.4552 21.5592 14.4972 21.6541 14.5405C21.7489 14.5839 21.8316 14.6368 21.902 14.6991C21.9752 14.7587 22.0335 14.8305 22.0768 14.9145C22.1202 14.9986 22.1419 15.1002 22.1419 15.2194C22.1419 15.4118 22.0836 15.5677 21.9671 15.6869C21.8505 15.8034 21.6703 15.8766 21.4264 15.9064V16.4308H21.089V15.9186C20.8993 15.9132 20.7448 15.8929 20.6256 15.8576C20.5063 15.8197 20.4169 15.7845 20.3573 15.752L20.4589 15.4471C20.5402 15.485 20.6378 15.5202 20.7516 15.5528C20.8654 15.5853 21.0064 15.6015 21.1744 15.6015Z" fill="#0000FF"/>
<rect x="29.9107" y="30.5599" width="1.73252" height="2.42553" fill="#28282D"/>
<rect x="33.0294" y="28.4809" width="1.73252" height="4.50456" fill="#28282D"/>
<rect x="36.148" y="26.0554" width="1.73252" height="6.93009" fill="#28282D"/>
<rect x="39.2665" y="23.803" width="1.73252" height="9.18237" fill="#28282D"/>
<rect x="29.9107" y="33.2279" width="11.0881" height="1.10881" fill="#28282D"/>
<path d="M31.0195 33.5052H39.89V34.0597H31.0195V33.5052Z" fill="#EEEDED"/>
<path d="M23.641 27.4334C23.6411 27.432 23.6411 27.4307 23.641 27.4293C23.641 27.417 23.641 27.4042 23.641 27.3926C23.641 27.3526 23.639 27.3126 23.6382 27.2728C23.6279 26.8513 23.6219 26.4293 23.5826 26.0094C23.5512 25.6754 23.5071 25.342 23.4472 25.0119C23.6001 24.8074 23.7503 24.601 23.8979 24.3928C23.9106 24.4128 23.9218 24.4336 23.9314 24.4552C23.9356 24.466 23.9385 24.4772 23.94 24.4887C23.9462 24.5317 23.952 24.5748 23.9576 24.6178C23.9661 24.6829 23.974 24.7481 23.9812 24.8136C24.033 25.2814 24.0549 25.7521 24.0469 26.2227C24.0431 26.4469 24.0371 26.6724 24.0139 26.8956C24.0031 27.0291 23.977 27.1609 23.9362 27.2884C23.9289 27.3096 23.9208 27.3307 23.911 27.3513C23.905 27.3657 23.9017 27.3811 23.9015 27.3966C23.9015 27.4029 23.9015 27.409 23.9015 27.4153C23.9015 27.4361 23.9002 27.4573 23.8984 27.4784C23.8922 27.551 23.8808 27.6231 23.8642 27.6941C23.8389 27.8015 23.8074 27.9074 23.7698 28.0111C23.7372 28.1108 23.6941 28.2067 23.6413 28.2973C23.6152 28.3402 23.5849 28.3805 23.5509 28.4175C23.5321 28.4376 23.512 28.4564 23.4908 28.4739C23.4807 28.482 23.4684 28.4971 23.4545 28.4875C23.451 28.4839 23.4479 28.4798 23.4455 28.4754C23.4296 28.4478 23.4161 28.4189 23.405 28.3891C23.4105 28.3783 23.4108 28.3687 23.4155 28.3574C23.4588 28.2552 23.4719 28.141 23.491 28.0325C23.5018 27.9744 23.5124 27.9163 23.5232 27.8584C23.5303 27.8276 23.5303 27.7956 23.5232 27.7648C23.5188 27.7486 23.5115 27.7333 23.5016 27.7197C23.4952 27.7109 23.4917 27.7002 23.4918 27.6893C23.4918 27.6783 23.4954 27.6676 23.5021 27.6588L23.5152 27.641L23.5799 27.5504C23.5904 27.5353 23.6012 27.5204 23.6121 27.5053L23.6156 27.5003C23.6298 27.481 23.6385 27.4582 23.6408 27.4344L23.641 27.4334Z" fill="#010002"/>
<path d="M19.2231 23.5375C19.2868 23.6523 19.3592 23.7733 19.4327 23.8805C19.5977 24.1181 19.782 24.3417 19.9836 24.5491C20.011 24.5775 20.0384 24.6062 20.0669 24.6339C20.086 24.6557 20.1115 24.6709 20.1398 24.6772C20.1884 24.6852 20.209 24.5934 20.2455 24.5622C20.276 24.537 20.3394 24.5685 20.3613 24.5348C20.443 24.6054 20.5198 24.6817 20.591 24.763C20.6079 24.7821 20.624 24.8015 20.6398 24.8211C20.5846 24.9218 20.529 25.0216 20.473 25.1206C20.4191 25.2157 20.3567 25.3118 20.2604 25.3687C20.2187 25.3956 20.1703 25.4103 20.1207 25.4112C20.0711 25.4121 20.0222 25.3991 19.9795 25.3737C19.904 25.3277 19.8512 25.2527 19.8072 25.1785C19.7498 25.0821 19.702 24.9799 19.6509 24.8803C19.4414 24.4711 19.2317 24.0619 19.0218 23.6528C18.9604 23.6246 18.8995 23.5956 18.8396 23.5644C18.7694 23.5282 18.6949 23.4917 18.6368 23.4369C18.6078 23.4106 18.5849 23.3784 18.5696 23.3425C18.5602 23.3247 18.5566 23.3043 18.5593 23.2844C18.5639 23.2757 18.5703 23.2683 18.5782 23.2625C18.5861 23.2568 18.5952 23.2529 18.6048 23.2512C18.641 23.244 18.6782 23.244 18.7143 23.2512C18.7572 23.2558 18.7995 23.2655 18.8401 23.2801C18.8974 23.3022 18.9534 23.3274 19.008 23.3556L19.0379 23.3704C19.0401 23.3717 19.0427 23.3723 19.0452 23.3719C19.0449 23.357 19.0414 23.3423 19.0349 23.3289C19.0193 23.2937 19.0097 23.2561 19.0067 23.2177C19.0049 23.1925 19.0022 23.1485 19.0218 23.1291C19.0505 23.1009 19.094 23.1528 19.1063 23.1739C19.1226 23.2048 19.1354 23.2374 19.1446 23.271C19.1562 23.3068 19.1672 23.3428 19.1781 23.3787C19.1945 23.4307 19.2095 23.4837 19.2231 23.5375Z" fill="#010002"/>
<path d="M21.6756 34.3945V34.2551C21.6756 34.2497 21.6778 34.2444 21.6817 34.2405C21.6855 34.2367 21.6908 34.2345 21.6963 34.2345H21.9074C21.9126 34.2345 21.9176 34.2366 21.9213 34.2402C21.9249 34.2439 21.927 34.2489 21.927 34.2541V34.7607C21.927 34.774 21.9217 34.7868 21.9123 34.7963C21.9028 34.8057 21.89 34.811 21.8767 34.811H21.1839C21.1778 34.811 21.172 34.8086 21.1676 34.8043C21.1633 34.8 21.1608 34.7942 21.1608 34.7881C21.1608 34.7116 21.1911 34.6383 21.2452 34.5842C21.2993 34.5301 21.3727 34.4997 21.4491 34.4997H21.5712C21.585 34.4997 21.5986 34.4969 21.6113 34.4916C21.624 34.4863 21.6355 34.4786 21.6452 34.4688C21.6549 34.459 21.6626 34.4474 21.6678 34.4347C21.673 34.422 21.6757 34.4083 21.6756 34.3945Z" fill="black"/>
<path d="M22.9205 34.3945V34.2551C22.9205 34.2497 22.9183 34.2444 22.9144 34.2405C22.9105 34.2367 22.9053 34.2345 22.8998 34.2345H22.6887C22.6835 34.2345 22.6785 34.2366 22.6748 34.2402C22.6711 34.2439 22.6691 34.2489 22.6691 34.2541V34.7607C22.6691 34.774 22.6744 34.7868 22.6838 34.7963C22.6932 34.8057 22.706 34.811 22.7194 34.811H23.4132C23.4193 34.811 23.4251 34.8086 23.4294 34.8043C23.4338 34.8 23.4362 34.7942 23.4363 34.7881C23.4363 34.7116 23.4059 34.6383 23.3518 34.5842C23.2978 34.5301 23.2244 34.4997 23.1479 34.4997H23.0261C23.0123 34.4999 22.9985 34.4972 22.9857 34.492C22.9728 34.4868 22.9611 34.479 22.9513 34.4692C22.9415 34.4595 22.9337 34.4478 22.9284 34.435C22.9231 34.4222 22.9204 34.4084 22.9205 34.3945Z" fill="black"/>
<path d="M21.9542 23.7964H22.7657V21.9522H21.9542V23.7964Z" fill="#010002"/>
<path d="M20.1893 24.5212L20.9658 23.2378C21.0073 23.1676 21.0426 23.0941 21.0715 23.0179C21.1218 22.8878 21.2643 22.6683 21.7447 22.5876C21.8086 22.577 21.874 22.5609 21.9424 22.5483C21.9462 22.5483 21.9538 22.5423 21.9538 22.546C21.9507 22.7436 22.1498 22.9235 22.2993 22.9235C22.4777 22.9235 22.7185 22.8077 22.7653 22.5569C22.7653 22.5541 22.7713 22.5569 22.7741 22.5586L22.7844 22.5604C22.9606 22.5913 23.0668 22.6135 23.2137 22.6932C23.3919 22.7899 23.4691 22.7828 23.5799 22.925C23.5816 22.927 23.6621 23.1641 23.749 23.4743C23.908 24.0415 24.0509 24.9112 24.0509 24.9112L23.447 25.0118L23.3031 24.1384L23.3322 24.956L23.2895 26.9298H21.3191L21.23 24.1601L20.7305 24.9114L20.1893 24.5212Z" fill="#010002"/>
<path d="M23.2969 26.741L23.3015 26.9006C23.3183 27.4781 23.4137 28.1316 23.3717 28.7076L22.964 34.266H22.6278L22.4082 27.9318C22.406 27.9069 22.3944 27.8837 22.3756 27.8672C22.3569 27.8506 22.3325 27.842 22.3075 27.843C22.2825 27.842 22.2581 27.8506 22.2394 27.8672C22.2206 27.8837 22.209 27.9069 22.2068 27.9318L21.9804 34.266H21.6487L21.2408 28.7028C21.1988 28.1301 21.2843 27.5108 21.308 26.9371L21.3148 26.7722L23.2969 26.741Z" fill="#010002"/>
<path d="M23.3324 21.3291C23.329 21.4058 23.2955 21.4781 23.2393 21.5304C23.2201 21.5515 23.1977 21.5694 23.1729 21.5835C23.1491 21.5944 23.1235 21.6005 23.0974 21.6014C23.0834 21.6026 23.0694 21.602 23.0556 21.5999C23.0556 21.6054 23.0538 21.611 23.0528 21.6162C23.0324 21.715 22.9894 21.8077 22.927 21.887C22.8512 21.9844 22.7552 22.0641 22.6454 22.1205C22.5239 22.182 22.3941 22.2257 22.2602 22.2504C22.1718 22.2682 22.0823 22.2821 21.9924 22.2916C21.9486 22.2909 21.9061 22.277 21.8704 22.2516C21.8023 22.209 21.7478 22.1479 21.7131 22.0755C21.5931 21.833 21.5374 21.5636 21.5513 21.2934C21.5539 21.2428 21.559 21.1924 21.5666 21.1424C21.5687 21.1278 21.5707 21.1125 21.5737 21.0974C21.5804 21.1063 21.5878 21.1147 21.5958 21.1225L21.6092 21.1351C21.6092 21.1261 21.6069 21.1172 21.6056 21.1082C21.5898 21.0029 21.5838 20.8963 21.5875 20.7899C21.5911 20.7136 21.6038 20.638 21.6253 20.5646C21.6358 20.5282 21.6484 20.4924 21.6615 20.4567C21.6726 20.4275 21.6852 20.3988 21.6947 20.3691C21.6962 20.3638 21.6977 20.3588 21.6995 20.3538L21.7048 20.3369L21.7209 20.3445C21.8331 20.3948 21.9499 20.4489 22.0719 20.4683C22.1556 20.4816 22.2404 20.4871 22.3251 20.4846C22.3991 20.4836 22.4727 20.4731 22.544 20.4534C22.5922 20.4365 22.6375 20.412 22.6781 20.381C22.6829 20.3777 22.6912 20.3724 22.6957 20.3686C22.6996 20.3717 22.7029 20.3753 22.7056 20.3794C22.7229 20.4117 22.7151 20.4225 22.737 20.4429C22.7931 20.4965 22.8396 20.5594 22.8744 20.6288C22.9436 20.7617 22.9396 20.8553 22.9416 21.0022C22.9416 21.0407 22.9517 21.1761 22.9502 21.2146C22.959 21.2071 22.9824 21.1618 22.9929 21.1563C23.0247 21.1404 23.0602 21.1336 23.0956 21.1366C23.1062 21.1366 23.1167 21.1384 23.1273 21.1399C23.1443 21.1429 23.1608 21.1482 23.1764 21.1555C23.1905 21.1628 23.2043 21.1703 23.2181 21.1784C23.2378 21.1897 23.2511 21.2267 23.2685 21.2405C23.2758 21.2154 23.2836 21.1791 23.2901 21.1469C23.3045 21.1948 23.3173 21.2453 23.3281 21.2979C23.3302 21.3082 23.3316 21.3186 23.3324 21.3291Z" fill="#010002"/>
<path d="M21.6022 21.1494C21.5796 21.1268 21.5612 21.1004 21.5478 21.0714C21.5232 21.0088 21.513 20.9415 21.5179 20.8744C21.5209 20.7873 21.5383 20.6982 21.5393 20.6101C21.5402 20.5709 21.5437 20.5319 21.5498 20.4931C21.5529 20.4428 21.5511 20.3922 21.5446 20.3422H21.5267C21.4636 20.3433 21.4016 20.3591 21.3458 20.3885C21.3458 20.313 21.3873 20.2438 21.4326 20.1849C21.5241 20.067 21.6368 19.9673 21.765 19.891C21.824 19.8537 21.8875 19.824 21.954 19.8026C21.9606 19.8006 21.9673 19.7989 21.9741 19.7976C21.9824 19.7957 21.9908 19.7942 21.9993 19.7933C22.0046 19.7866 22.0103 19.7802 22.0164 19.7742C22.0715 19.727 22.1392 19.6969 22.2112 19.6874C22.2586 19.6794 22.3065 19.6742 22.3546 19.672C22.4136 19.6685 22.4729 19.6668 22.5325 19.667C22.5957 19.667 22.6583 19.6685 22.7222 19.6746C22.7766 19.678 22.8299 19.6917 22.8793 19.7148C22.9157 19.7334 22.9486 19.7582 22.9766 19.788C22.9809 19.7926 22.9852 19.7974 22.9892 19.8024C22.9918 19.8052 22.9951 19.8072 22.9988 19.8082C23.0064 19.81 23.0139 19.8124 23.0212 19.8152C23.0443 19.8246 23.0666 19.836 23.0876 19.8494C23.1287 19.8775 23.164 19.9133 23.1913 19.9549C23.2238 19.9974 23.2423 20.0491 23.2441 20.1026C23.2461 20.1529 23.2643 20.2012 23.2524 20.2503C23.2518 20.2705 23.2526 20.2907 23.2549 20.3107C23.2678 20.3489 23.2504 20.3437 23.2633 20.3817C23.2884 20.4571 23.3093 20.5739 23.3262 20.6507C23.343 20.7288 23.3486 20.809 23.3425 20.8887C23.336 20.9699 23.3242 21.0506 23.307 21.1303C23.2997 21.166 23.2879 21.2289 23.2771 21.2652C23.259 21.2513 23.2456 21.2148 23.2268 21.203C23.2132 21.1952 23.1991 21.1877 23.1852 21.1804C23.1693 21.1728 23.1523 21.1676 23.1349 21.1648C23.1246 21.1632 23.114 21.162 23.1035 21.1615C23.0681 21.1585 23.0326 21.1653 23.0008 21.1811C22.9902 21.1867 22.9565 21.2458 22.9479 21.2536C22.9479 21.2151 22.916 21.0759 22.9152 21.0374C22.9135 20.8895 22.9263 20.7858 22.8569 20.6537C22.8211 20.585 22.8017 20.5198 22.7449 20.4677C22.7227 20.4473 22.7308 20.4365 22.7132 20.4043C22.7107 20.4001 22.7074 20.3965 22.7036 20.3935C22.6988 20.3973 22.6908 20.4025 22.686 20.4058C22.6453 20.4373 22.6 20.4622 22.5516 20.4798C22.4802 20.4995 22.4065 20.5099 22.3324 20.5107C22.2477 20.5133 22.163 20.5079 22.0793 20.4946C21.9575 20.4753 21.8407 20.4217 21.7283 20.3708L21.7124 20.3633L21.7069 20.3799C21.7054 20.3852 21.7038 20.3902 21.7021 20.3952C21.6928 20.4252 21.6799 20.4539 21.6691 20.4831C21.6558 20.5185 21.644 20.5545 21.6326 20.591C21.6113 20.6648 21.5986 20.7408 21.5949 20.8175C21.5914 20.9239 21.5974 21.0305 21.613 21.1358L21.6168 21.1627L21.6022 21.1494Z" fill="#010002"/>
</svg>
