<svg xmlns="http://www.w3.org/2000/svg" width="64" height="64" fill="none" xmlns:v="https://vecta.io/nano"><path d="M59.384 0H4.616C2.066 0 0 2.066 0 4.616v54.769C0 61.934 2.066 64 4.616 64h54.769C61.934 64 64 61.934 64 59.384V4.616C64 2.066 61.934 0 59.384 0h0zM22.701 48.375h-7.793V24.928h7.794v23.447zm-3.896-26.648h-.051c-2.615 0-4.307-1.8-4.307-4.05 0-2.301 1.743-4.051 4.409-4.051s4.307 1.751 4.357 4.051c0 2.25-1.691 4.05-4.409 4.05zm31.998 26.648H43.01V35.832c0-3.152-1.129-5.302-3.948-5.302-2.153 0-3.435 1.45-3.998 2.85-.206.501-.256 1.201-.256 1.902v13.094h-7.793V24.928h7.793v3.32c1.036-1.598 2.889-3.87 7.023-3.87 5.127 0 8.972 3.351 8.972 10.553v13.444z" fill="#28282d"/></svg>