<svg xmlns="http://www.w3.org/2000/svg" width="90" height="64" fill="none" xmlns:v="https://vecta.io/nano"><path d="M88.146 10.015c-1.037-3.916-4.077-7.003-7.932-8.057C73.171 0 44.999 0 44.999 0S16.828 0 9.786 1.883c-3.781 1.053-6.895 4.216-7.932 8.132C0 17.167 0 32 0 32s0 14.908 1.853 21.986c1.038 3.915 4.077 7.002 7.933 8.057C16.903 64 45 64 45 64s28.171 0 35.213-1.883c3.856-1.054 6.895-4.141 7.933-8.056C90 46.908 90 32.075 90 32.075s.074-14.908-1.854-22.061zM36.03 45.703V18.297L59.456 32 36.03 45.703z" fill="#28282d"/></svg>